<?xml version="1.0" encoding="UTF-8"?>
<svg id="Layer_1" data-name="Layer 1" xmlns="http://www.w3.org/2000/svg" viewBox="0 0 481.16 336.3">
  <defs>
    <style>
      .cls-1 {
        fill: #070606;
        stroke-width: 0px;
      }
    </style>
  </defs>
  <path class="cls-1" d="m190.79,27v9.7l4.06.84-4.06-10.53Z"/>
  <path class="cls-1" d="m300.69,318.99c-3.2-.97-6.04-2.76-8.53-5.42-2.46-2.65-4.36-5.58-5.63-8.77l-16.03-41.49-40.51-104.86L168.75,0h-9.37l-29.09,55.3-95.44,249.5c-1.3,3.2-3.17,6.12-5.66,8.77-2.49,2.65-5.34,4.44-8.53,5.42l-20.66,6.01v11.29h93.51v-11.29l-40.87-8.91,37.24-102.88h116.34l23.75,61.8,16.17,42.06-41.84,7.93v11.29h117.07v-11.29l-20.69-6.01Zm-203.33-124.03l49.75-133.89h.24l12.02,32.44,39.4,101.45h-101.42Z"/>
  <path class="cls-1" d="m455.95,320.08c-1.95-.43-4.01-1.3-6.17-2.57-2.19-1.27-4.33-2.79-6.42-4.5-2.11-1.73-4.14-3.6-6.09-5.63-1.95-2.03-3.6-3.95-4.96-5.74l-85.31-112.55c7.2-1.79,14.95-4.9,23.21-9.34,8.23-4.41,15.84-10.16,22.83-17.22,6.99-7.04,12.76-15.52,17.33-25.43,4.58-9.88,6.88-21.23,6.88-33.99,0-6.15-.65-12.32-1.92-18.58-1.27-6.2-3.52-12.16-6.74-17.87-3.25-5.71-7.58-11-13.05-15.87-5.5-4.87-12.4-9.15-20.72-12.84-8.34-3.68-18.28-6.55-29.84-8.67-11.54-2.09-24.97-3.14-40.27-3.14h-113.91v10.56l4.06.84,24.54,5.04c3.01.73,5.5,2.3,7.53,4.71,2.03,2.41,3.06,5.34,3.06,8.77v72.36l40.51,104.86v-42.17l36.45,6.99,79.67,110.06c3.6,4.96,6.8,9.18,9.59,12.7,2.76,3.55,5.8,6.47,9.1,8.8,3.3,2.33,7.18,4.01,11.59,5.06,4.44,1.03,10.02,1.57,16.76,1.57h47.5v-10.59l-25.21-5.63Zm-150.82-140.45c-2.09,0-4.74-.03-7.96-.11-3.25-.08-6.58-.22-10.02-.46-3.47-.22-6.69-.49-9.7-.79-3.01-.3-5.34-.68-6.96-1.11V42.57h30.14c11.7,0,22.15,1.3,31.31,3.93,9.15,2.63,16.82,6.72,23.07,12.27,6.2,5.55,10.97,12.65,14.27,21.26,3.3,8.64,4.96,18.96,4.96,30.95,0,9.02-1.44,17.63-4.28,25.89-2.84,8.26-7.12,15.52-12.84,21.83-5.69,6.31-12.86,11.37-21.48,15.19-8.64,3.82-18.79,5.74-30.52,5.74Z"/>
</svg>