<?xml version="1.0" encoding="UTF-8"?>
<svg id="Layer_1" data-name="Layer 1" xmlns="http://www.w3.org/2000/svg" viewBox="0 0 492.01 193.83">
  <defs>
    <style>
      .cls-1 {
        fill: #817872;
      }

      .cls-1, .cls-2, .cls-3, .cls-4, .cls-5 {
        stroke-width: 0px;
      }

      .cls-2 {
        fill: #a09992;
      }

      .cls-3 {
        fill: #413936;
      }

      .cls-4 {
        fill: #584f4b;
      }

      .cls-5 {
        fill: #070606;
      }
    </style>
  </defs>
  <g>
    <path class="cls-5" d="m77.46,76.4l5.18,34.86h-9.26l-.49-6.27h-3.24l-.55,6.27h-9.37l4.62-34.86h13.1Zm-4.8,22.42c-.46-3.95-.92-8.83-1.38-14.64-.92,6.68-1.5,11.56-1.74,14.64h3.12Z"/>
    <path class="cls-5" d="m100.21,67.39h22.68v10.47h-9.08v9.92h8.5v9.95h-8.5v11.5h9.98v10.47h-23.58v-52.3Z"/>
    <path class="cls-5" d="m143.58,58.09h12.83c8.56,0,14.35.33,17.38.99,3.03.66,5.5,2.35,7.41,5.06,1.91,2.71,2.86,7.04,2.86,12.98,0,5.43-.67,9.07-2.02,10.94-1.35,1.87-4.01,2.99-7.97,3.36,3.59.89,6,2.08,7.24,3.57,1.23,1.49,2,2.86,2.3,4.11s.45,4.69.45,10.31v18.39h-16.84v-23.17c0-3.73-.29-6.04-.88-6.93-.59-.89-2.13-1.34-4.63-1.34v31.44h-18.13V58.09Zm18.13,11.93v15.5c2.04,0,3.47-.28,4.29-.84s1.23-2.38,1.23-5.45v-3.83c0-2.21-.39-3.66-1.18-4.35-.79-.69-2.23-1.03-4.33-1.03Z"/>
    <path class="cls-5" d="m227.14,49.67v87.16h-22.66V49.67h22.66Z"/>
    <path class="cls-5" d="m250.19,49.96h16.96c10.95,0,18.35.5,22.21,1.51,3.86,1.01,6.79,2.66,8.8,4.95,2.01,2.3,3.27,4.85,3.77,7.67.5,2.82.75,8.35.75,16.61v30.52c0,7.82-.37,13.05-1.1,15.69-.74,2.64-2.02,4.7-3.85,6.19-1.83,1.49-4.09,2.53-6.78,3.12-2.69.59-6.75.89-12.17.89h-28.59V49.96Zm22.66,14.91v57.33c3.27,0,5.28-.65,6.03-1.96.75-1.31,1.13-4.87,1.13-10.69v-33.86c0-3.95-.13-6.48-.38-7.59-.25-1.11-.83-1.93-1.72-2.45-.9-.52-2.58-.78-5.06-.78Z"/>
    <path class="cls-5" d="m340.63,58.67v69.73h-18.13V58.67h18.13Z"/>
    <path class="cls-5" d="m385.48,67.68l7.78,52.3h-13.9l-.73-9.4h-4.86l-.82,9.4h-14.06l6.94-52.3h19.66Zm-7.21,33.63c-.69-5.92-1.38-13.24-2.07-21.96-1.39,10.01-2.26,17.34-2.61,21.96h4.68Z"/>
    <path class="cls-5" d="m435.61,78.14v34.86h-7.95l-4.72-15.85v15.85h-7.58v-34.86h7.58l5.08,15.7v-15.7h7.58Z"/>
  </g>
  <g>
    <g>
      <path class="cls-5" d="m482.85,60.01c.28.47.36.1-.27-1.23-.24-.27-.47-.55-.74-.8.37.66.67,1.36,1.02,2.04Z"/>
      <path class="cls-5" d="m478.3,51.15c-.62-.63-1.32-1.28-1.8-1.63-.5-.34-.75-.4-.49.12,1.37,1.09,1.55,1.47,2.98,2.73.92,1.18,1.38,2.2,1.15,2.05.36.4,1.16,1.98,1.68,2.61-.67-1.83-1.99-3.96-3.77-5.83-.3-.47.12-.12.24-.05Z"/>
      <path class="cls-5" d="m341.11,7.6l.94.25c-.25-.12-.57-.19-.94-.25Z"/>
      <path class="cls-5" d="m249.69,6.25c.69-.11.95-.42.96-.7-.63.23-1.14.44-.96.7Z"/>
      <path class="cls-5" d="m233.65,3.78c.35.08.64.11.95.16-.39-.28-.76-.42-.95-.16Z"/>
      <path class="cls-5" d="m341.11,7.6l-2.41-.65c-.19.5,1.23.45,2.41.65Z"/>
      <path class="cls-5" d="m462.57,38.78c.44.25.81.44,1.15.62-.35-.22-.7-.42-1.06-.63-.03,0-.05,0-.1,0Z"/>
      <path class="cls-5" d="m381.2,11.07l.73.11c.23-.08.45-.19.66-.31l-1.4.19Z"/>
      <path class="cls-5" d="m411.53,16.98c-.67-.2-1.04.35-1.36.56.44-.16.97-.16,1.57-.06.04-.11-.02-.27-.21-.5Z"/>
      <path class="cls-5" d="m457.25,34.26l.79.37c-.2-.1-.55-.26-.79-.37Z"/>
      <path class="cls-5" d="m359.28,7.87c-.04-.17-.14-.32-.25-.42-.01.14.09.28.25.42Z"/>
      <path class="cls-5" d="m464.77,103.1s.03.02.04.04c.12-.14.14-.19-.04-.04Z"/>
      <path class="cls-5" d="m485.15,75.08l-.09.49c.04.06.08.13.14.14l-.05-.62Z"/>
      <path class="cls-5" d="m204.24,2.15c.06.03.08.03.14.05.71-.43.28-.33-.14-.05Z"/>
      <path class="cls-5" d="m25.83,161.08c-.27-2.86,1.82-3.21,3.65-3.8,1.86-.58,3.44-1.41,2.72-4.86-.35.94-2.4,1.95-4.18,3.23-1.77,1.27-3.29,2.94-2.18,5.44Z"/>
      <path class="cls-5" d="m461.92,38.33c-.35-.21-.71-.43-1.07-.65.48.3.81.51,1.07.65Z"/>
      <path class="cls-5" d="m32.2,152.41l.02-.03-.16-.67c.06.29.09.46.14.71Z"/>
      <path class="cls-5" d="m138.14,14.33c.32.67.73,1.14,1.14,1.58-.13-.4-.42-.86-1.14-1.58Z"/>
      <path class="cls-5" d="m188.46,10.75l-1.3-.28c.54.24.95.29,1.3.28Z"/>
      <path class="cls-5" d="m114.58,26.58c-.75-.12-1.16-.63-1.86.2.15.18.28.31.44.42.13-.66.47-1.06,1.42-.62Z"/>
      <path class="cls-5" d="m88.81,35.27c.27.28.55.45.82.68.22-.18.49-.36.72-.53l-1.54-.15Z"/>
      <path class="cls-5" d="m394.86,140.18c.57-.11.94-.14,1.24-.14-.46-.08,3.14-1.47-1.24.14Z"/>
      <path class="cls-5" d="m462.65,38.63c-.17-.02-.38-.1-.73-.3.26.15.51.3.75.44.09,0,.12-.02-.02-.14Z"/>
      <path class="cls-5" d="m118.29,41.26l-3.97,1.26c1.12-.33,2.56-.78,3.97-1.26Z"/>
      <path class="cls-5" d="m209.88,172.33l.96-.08c-.37,0-.71.02-.96.08Z"/>
      <path class="cls-5" d="m102.75,46.79c-.76.09-1.54.26-2.32.5-.15.1-.32.2-.4.3l2.72-.8Z"/>
      <path class="cls-5" d="m396.1,140.04s0,0,0,0c0,0,0,0,0,0Z"/>
      <path class="cls-5" d="m421.27,129.06c-3.62,1.61-1.54,1.13-2.21,1.69-4.3,2.01-2.13.6-3.69,1.05-2.68,1.26-4.63,2.48-6.69,3.28-.18,0-.59.14-.15-.13-2.78,1.49-8.64,3.41-11.94,5.02-.27.06-.41.07-.48.07.63,0,.79.16.72.35-1.67.63-3.03,1.37-3.76,1.33,1.03-.36,1.08-.49,1.54-.74l-1.72.73c-1.72.19,2.36-.98,2.26-1.25-3.39,1.34-7.3,3.04-9.99,3.8-.67-.17,6.15-2.21,2.51-1.34l4.14-1.26c-3.31.52,2.49-.83-.59-.44-5.41,1.73-5.95,2.24-11.38,3.86-1.15.59.5.18-.65.77-7.59,2.76-6.36.9-11.89,3.06-1.4.67-1.83,1.35-5.98,2.2l1.26-.83c-5.32,1.4-2.86,1.47-8.52,2.63.95-.43,4.15-1.25,3.33-1.09-3.71.59-2.49.93-5.27,1.64l-.68-.26c-5.67,1.49-11.88,3.27-18.21,4.73.32-.2,1.38-.57-.13-.38-7.95,1.95-17.13,3.47-24.96,4.53l-2.9.9c-.69.11-1.31.04-.58-.16-3.06.36-.11.28-1.55.68-1.72.31-2.32.14-1.25-.16-5.29,1.24-15.18,3.13-20.91,3.42l1.09-.27c-4.44.4-4.87,1.53-9.03,1.63l.78-.17c-9.62,1.01-20.23,2.46-27.64,2.38-1.34.78-9.56.44-10.12,1.39-5.54-.11-3.98-.35-11.75-.25-2.07.05-3.06.73-5.62.95l-.09-.5-3.46.66-1.88-.53-2.4.2c.96,0,2.05.17,1.9.32-3.75.36-9.18-.11-9.27-.38-2.96.21-5.92.37-8.89.54.2-.21,1.68-.29,2.86-.43-4.74.57-.87-.54-5.21-.04.58.12-.31.31-.41.42-2.17-.31-7.1-.35-10.75-.29l.71-.35c-6.59-.21-13.89-.19-21.27-.6,2.64.32,2,.94-.17.89l-.84-.63c-1.42.28,2.25.34-.64.63-2.76-.23-1.82-.77-.22-.87h-3.36c-.19-.2.61-.24.82-.45-1.4.29-5.74-.99-7.76-.51l-.18-.19c-7.36-.62-10.71-.76-16.69-1.38-.17.5-2.5.13-4.33.32-4.37-.71-9.18-1.79-14.44-2.59-3.73-.35-1.15.26-2.86.3-.19-.51-5.44-1.4-2.66-1.26-6.29-1.08-8.04-1.38-16-2.75.81.4,1.75.7,1.22.75-1.45-.26-3.21-.96-2.95-1.14l.39.04c-4.5-.69-9.48-2.35-14.16-4.1-4.69-1.74-9.05-3.55-12.58-4.33l.4.09c-2.38-.7-4.75-1.46-7.1-2.26-3.09-1.46,2.02.48-.17-.82-3.83-1.2-6.66-2.64-9.25-4.1-2.59-1.45-4.93-2.95-7.8-4.52-1.69-2.01-5.29-4.56-8.63-7.69-1.67-1.56-3.24-3.28-4.53-5-1.29-1.72-2.19-3.5-2.72-5.01l-.14.49c-1.03-1.34-.71-1.89-1.04-3.04-.22.26.36,1.78-.21.9-.7-1.62-1.26-3.31-1.61-5.05-.31-1.75-.52-3.54-.43-5.34.08-1.8.3-3.61.78-5.37.19-.89.52-1.76.79-2.63.36-.85.64-1.73,1.06-2.56,1.55-3.38,3.64-6.54,6.06-9.46,2.4-2.93,5.08-5.64,7.88-8.19,2.06-1.85,2.36-2.71,2.87-3.61.51-.9,1.22-1.89,4.28-3.76-.41.58-.79,1.17-1.18,1.76,4.16-3.85,9-7.17,13.94-10.21,4.94-3.06,10.03-5.83,14.88-8.68-.53.44-.47.6-1.43,1.11,1.15-.35,3.11-1.33,4.77-2.27,1.67-.92,3.03-1.81,2.97-1.99,1.6-.71.51.13,1.57-.16,2.26-.78,5.19-3.03,6.53-3.13.23-.02-.55.4-.94.62,1.32-.85,6.66-2.83,5.09-2.72,3.99-1.42,7.39-3.3,10.66-4.23,1.85-1.34,6.87-2.29,7.26-3.29,0,.88,7.21-1.87,9.64-3.06-.77.53,2.29-.49,1.4.17,2.9-.97,5.51-1.97,4.88-2.22,5.65-.77,10.6-4.09,14-3.77,8.6-2.94,16.69-5.31,24.61-7.38-.11.81-8.77,2.21-8.23,2.95,7.44-2.22,11.65-3.88,19.22-5.34,1.97-.33-1.04.57-1.66.84,7.51-1.98,14.68-3.02,21.4-4.67,0,.07-.73.28-1.41.46,1.33-.27,3.13-.46,2.92-.77l-1.29.33c-2.23-.1,5.14-1.97,5.34-2.24-2.12,1.33,6.77-.92,3.35.89.87-.21,1.96-.55,1.72-.73,1.32-.15,1.76-.09.47.37,4.78-.97,3.02-1.04,7.38-1.71,0,.16-.86.36-1.29.61,2.16-.65,4.34-1.3,8.05-1.7-.21.13.24.18-.87.34,6.34-.96,10.72-2.31,17.75-2.85-1.98.9,2.4-.07,2.84.45l3.74-.59-1.54-.1c3.29-.37,6.17-1.06,9.02-1.17l-2.43.48,6.17-.71-3.52.12c3.31-.6-.42-.66,3.99-.92-.89.13,3.31-.29,5.06-.11h-.01c1.62-.32,3.29-.62,5.75-.68.65.12-.47.63-.04.71,1.58-.58,7.73-.69,9.75-1.27-.68.15-.69.43-.47.47l1.33-.44c1.54.02,1.77.06,1.53.3,4.62-.19-1.5-.59,3.99-.6-.43.05-.22.09-1.11.19,5.51-.16,10.62-.73,15.69-.71,1.51.46-4.41.27-2.69.64,7.28-.36,15.09-1,22.15-.87l-1.32-.05c.98-.69,5.26.34,8.83.07-.88.04-1.15.36-.91.29,4.83.16,9.88,0,17.22.08l-.91.13c2.84.25,7.49.42,10.56.69.92-.11,2.68.02,1.63-.28,9.4,1.52,18.1.92,26.39,2.68-1-.12-2.4-.15-1.6-.05,2.38.23,4.76.48,7.13.75-.53-.33-.91-.28-2.38-.68.92-.03,2.95.1,4.71.36-3.22-.28-.03.42,1.33.76-.22-.11.27-.13.16-.23,3.64,1,.7-.43,5.71.65l-.29.09c1.9.25,3.68.34,5.7.75.79.44-2.03-.22-2.2,0,2.86.47,5.74.44,8.26,1.23-1.23-.14-2.97-.49-4.19-.62,2.75.86,3.09.84,5.16,1.3l-.2-.05,4.77,1.14-1.2-.35c3.71,0,7.25,1.43,12.1,2.14-4.73-.69-.83.08-1.26.31,1.19.38,2.99.98,2.45.92,2.3.32,3.66,1.19,6.89,1.72.11.14,2.36.71,1.79.82,2.89.8-.62-.39-.35-.43,4.54.98,10.21,3.68,16.53,5.72,2.7.98,4.29,1.56,5.85,2.12,1.55.57,3.05,1.14,5.47,2.27,1.52.98-1.49-.33-1.49-.33,2.53,1.43,4.43,2.47,6.84,3.75-.52-.21-.07.15.58.68,1.87,1.12,1.44.45,3.77,2.17-.47-.18-1.11-.38-2.04-.87,2.21,1.31,4.37,2.65,6.51,4.24.22.29-.13.09-.64-.25-.52-.32-1.19-.77-1.6-1.01,1.21.86,2.75,2.03,4.04,3.1,1.31,1.05,2.35,2,2.79,2.22l-1.3-1.41c.79.76.24.56-.38.05-2.03-1.56-2.73-2.48-2.77-2.66.5.39,1.01.77,1.5,1.17-.55-.86-2.04-2.07-3.82-3.28-1.79-1.19-3.85-2.4-5.47-3.4l1.59.48c-1.18-.59-2.35-1.2-3.55-1.75-.67-.51-1.04-1.02.65-.14-2.26-1.61-2.2-1.07-4.15-2.45-.21-.17-.09-.13.13-.03-.81-.4-1.65-.74-2.47-1.1.52.14-.23-.55,1.21.28-4.18-2.52-7.22-3.02-8.72-4.14l.39.13c-6.26-2.46-.8.21-5.58-1.35-.98-.59-1.87-1.43-2.8-2.18l-.78.23c-.65-.25-1.92-.75-1.62-.85-2.54-.54.35.34-1.17.15-3-1.56-8.81-2.56-9.29-3.61-1.26.06,2.96,1.23-.53.49-.71-1.21-4-.97-6.83-2.17,1.04-.28,3.76.77.93-.5-2,.38-5.7-1.7-8.25-2.15-.29.73-5.52-.96-9.81-1.54.33-.25-7.88-2.06-11.79-3.11l.14-.15c-.93.86-4.98,0-8-.22.21-.64.78-.81,2.44-.83l-2.81-.46c-.71.25-1.61.31-3.45.17l.82-.74c-3.75-.57-7.66-.05-12.42-1.27-.18.44.71,1.18,1.01,1.8.28.78.03.76-2.53.63-.09-.1-.17-.19-.06-.31.13-.29.44-.52,1.11-.55-.44.02-1.6.25-2.46-.06l2.12-.62c-2.16-.61-1.22.56-2.97.32.1-.72-1.25-.65-.95-1.21.46-.02,1.51.46,2.21.26-1.97-.35-4.33-1.05-5.08-1.72.14.45-.09,1.02-1.55.97-3.77-.32-1.21-1.07-3.38-1.71-.95.46-3.32-.36-3.46.86-1.1-.11-1.27-.7-1.67-1.08-1.99.36-9.13-.63-7,.97l.5.13c-.09.02-.21.01-.32.04h.02s-.02,0-.02,0c-3.23.45-6.53.1-9.84-.37-3.3-.47-6.61-1.07-9.79-.85l.02-.53c-3.8.46-8.46.07-11.16,1.3-1.12,0-2.65-1.11-2.18-1.82-2.9.4-3.22,1.1-7.43.04,2.91-1.06-1.03-.99,2.98-.76-3.78-.57-4.68-1.68-8.69.07,1.34-1.65-2.91-2.19-4.7-1.68l2.69,1.26c-2.02.23-3.79.1-5.59-.06l.89-2.33c-3.94-1.49-7.42-.35-10.63.73-3.22,1.03-6.18,2-9.32-.66-1.93,1.9,4.3,1.22,2.6,3.41-3.57-.2-7.57-4.02-8.7-4.03-5.04-1.49-4.25,4.23-9.45,3.4.75,1.03,1.59,3.71-2.1,5.03-3.56-.08-4.8-4.22-2.62-5.19.85-.13,1.29.19,1.29.55,1.12-.45,2.59-.97,1.07-2.06l-.37,1.08c-1.87-1.01-6.79-.66-5.81-2.51-2.61,1.16-.97,1.87,1.08,2.32-4.75-1.36-7.17.36-12.02-.46.83.59,1.67,1.9.92,1.94-7.08-.93-2.78,2.44-7.37,3.42-2.88-1.59.4-4.48-4.12-2.53-3.05-1.01-1.05-3.23-.02-4.29-4,2.7-8.3-.99-10.87-1.3l2.15-1.19c-1.29.7-2.41.76-3.56.84l1.69,2.48c-1.41-.35-2.54-.26-2.68-1.34-1.12,1.84,1.69,4.21-.67,6.85-1.98-1.15-5.14,2.09-6.32-1.39,5.77.58-1.19-3.53,3.47-4.55-.85.5-1.97.59-3.4.25-.27-.38.07-.75.41-.99-5.92-2.7-1.83,4.25-7.38,4.84.36-2.14-1.96-3.79-2.8-3.25,2.26-.18,1.66,3.33-.09,5.2-3.83-1.17-3.63,1.73-5.51,1.81l2.25.48c-.33,2.22-2.13,2.21-4.45,3.29-.53-1.65,2-1.51.99-2.11-1,2.11-2.72,1.37-4.61.48-1.89-.88-3.98-1.93-5.61-.3-2.07-1.22-1.03-4.17-2.8-4.96-3.68,3.59-5.34-2.4-9.35.75,2,2.9,2.03,2.06-.44,5.68,2.29-1.2,4.59-2.32,6.91-3.46-1.27,1.74-2.52,3.51-3.76,5.3,2.22-.37,4.25-2.79,5.7-2.49-1.72,2.87-1.64,2.09-.06,4.42-1.99-2-3.35-1.06-4.71.1-1.36,1.15-2.72,2.57-4.81,1.33l-1.67-7.79c-3.06-1.28-5.21.16-7.47,1.85-2.26,1.71-4.64,3.69-8.31,3.43l2.56.93c-.09,3.43-4.09,1.38-5.94,3.22-.53-2.8-2.17-3.48-3.59-4.99.68,2.02-5.09.95-4.13,6.7l-4.09-2.93c-5.99-.16-3.85,9.72-9.29,10.27.59-3.58-2.45-4.96.39-8.16-1.77.45-3.53.35-2.92,2.36-1.62-1.52-3.59,5.31-6.08,3.06-.31,1.5.48,4.64-1.53,5.01-.41-.53-.48-1.45-.48-1.45.48,1.44-2.34,2.96.46,5.65-4.19-3.71-7.88-2.34-11.34-.72-3.48,1.59-6.72,3.41-10.64.27-3.35,2.4-7.38,5.2-10.61,6.85-.19-.99-.66-1.51.11-1.46-5.91-.82,1.11,9.85-5.43,9.07-4.96-3.63,1.48-3.9-1.04-4.98-2.71-4.8-4.16-3.72-5.69-1.96-1.53,1.78-3.07,4.22-6.33,2.25l.55-1.01c-2.23-.99-3.42.76-4.58,3-1.17,2.22-2.29,4.92-4.63,5.79,0,0-.3-.98-.84-1.48-.06,6.61-4.31,11.5-7.17,15.48-1.37-4.47.42-3.13-2.92-6.36-1.39,1.72,4.62,5.62,2.01,9.04-2.52-1.22-6.24-1.09-9.59-4.65,1.05-.92,2.11-1.8,3.17-2.69-2.72-1.9-3.82-1.02-4.48.36-.66,1.42-.9,3.3-2.11,3.59l-1.53-2.31c-2.3,2.45-2.28,5.07-2.34,7.53-.05,2.51-.2,4.81-2.77,7.15l2.02.93c1.26,3.73.08,3.58-1.35,3.38-1.39-.2-3.05-.5-2.22,2.59-2.07-1.17-4.17-2.31-6.29-3.41-.09.79-.15,1.92-.17,3.25-.04,1.3-.03,2.82-.02,4.35.02,3.09.14,6.26-.13,8.63-.95-1.11-1.66-2.39-2.14-3.71-.49-1.34-.8-2.76-.96-4.16-.18-1.43-.23-2.84-.25-4.2-.04-1.39-.03-2.67-.11-3.88-.86,1.13-2.17,3.25-2.86,5.57-.72,2.29-.76,4.77.49,6.16-.11-1.31-.97-3.5.56-3.97,1.56,2.9,2.56,5.55,3,8.04.47,2.52.31,4.86-.28,7.4-3.28-.96-5.42-.65-6.77.71-1.38,1.33-2.01,3.61-2.26,6.14-.31,2.54-.17,5.27-.52,7.82-.14,1.27-.4,2.5-.91,3.7-.47,1.17-1.18,2.3-2.25,3.36,2.23,2.73,3.9,5.36,5.41,7.96,1.48,2.64,2.79,5.28,4.18,7.94,2.75,5.26,6.01,10.58,11.02,13.9,3.35-10.86,2.89,1.86,8.82-7.41,2.36.84,2.99,1.45,2.78,2.16.39,1.57.83,3.15,1.31,4.7.47,1.58.99,3.12,1.54,4.67,0,3.63-3.27.92-4.33,3.11,2.24,1.75,2.21,3.03,1.84,4.44-.36,1.4-1.08,2.9-.04,5.06.56-1.89,1.67-2.88,2.89-3.06,1.22-.19,2.55.39,3.66,1.75-.62-2.15-1.2-4.26-1.72-6.41,4.7-.85,5.08,1.8,5.64,4.54.27,1.38.56,2.74,1.36,3.62.81.88,2.15,1.3,4.43.67-1.17.75-2.35,1.5-3.54,2.23,1.11-.08,2.5.2,4.07.57,1.57.34,3.31.78,5.11.97,3.6.39,7.43-.11,10.44-3.65.23,1.35.19,4.36-1.62,4.62,4.07,1.92,9.47.99,14.32.37,4.88-.63,9.25-.93,11.94,2.17l-1.18,2.34c1.74-.43,3.71-4.08,5.14-1.28-.31.99-1.14,2.33-.44,2.6,1.02-.7,5-3.56,6.78-1.82l-2.29,2.46c3.8,2.25,7.28,1.02,10.59-.85,3.33-1.86,6.51-4.35,9.96-4.76-.5,3.5.75,5.99,2.55,7.76,1.79,1.75,4.11,2.8,5.65,3.46l-.23.97c9.5,1.46,16.75-4.73,25.53-6.96,2.45,3.63,7,4.4,11.97,4.7,4.97.33,10.35.16,14.65,1.82-1.3-1.05.31-4.71,1.85-5.36,2.01,1.13,5.61-4.27,5.25,1.14l-.72-.07c1.48,5.24,5.68,3.57,8.93,3.49l.49-6.89c4.25,4.79,9.82,3.39,14.83,1.99,5.02-1.42,9.5-2.84,11.98.91,1.96-1.76,4.47-2,6.39-3.73l.07,3.22c5.67.15,8.51.08,15.37-1.63l-1.25,2.34c1.97-.21,3.03-2.56,4.04-4.88,1.01-2.33,1.97-4.63,3.75-4.94l1.46,4.11c3.38-.53,6.87-.18,10.31-.34,3.43-.17,6.81-.84,9.93-3.15-.04.57-.11,1.7-1.19,2.06,3.19-.42,12.58,0,10.77-4.64.5,3.17,6.97-1.09,10.37-3.07l-.24,2.3c2.63-3.42,2.61-4.14,6.74-5.7,1.05.08,1.15,1.49-.27,1.22,3.52.41,2.29-2.45,6.52-2.17l-1.3,1.59c3.47-.56,3.08-1.2,4.72-3.03,2.02-1.19,6.59-.85,7.4.66.27-1.12,1.9-2.86,4-2.84.39.54-.27,1.08-.61,1.35,2.98-.06,5-1.09,6.81-1.96,1.81-.87,3.41-1.62,5.54-1.3.19.51.51.71.87.79-4.53,1.12-8.2,1.9-7.89,1.69.32,1.59,4.03.89,1.55,3.81,1.35-.99,3.15-2.45,5.08-3.66,1.93-1.2,3.97-2.2,5.82-2.33.2.09.4.18.58.36l-.33.26c.85-.08,1.55-.42,2.19-.85,1.18-.09,1.94-.13,3.03-.42.68,1,4.3-.64,6.12-1.13-.49-1.36,1.93-1.82-.56-2.32.31.02-.3.27-1.49.66-.26.12-.58.23-.74.36.03-.05.06-.11.09-.16-1.18.37-2.72.85-4.48,1.34,1.26-1.14,2.61-2.15,4.8-1.91.71-1.17,1.51-2.36,1.98-2.94,2.95,1.3,7.95.87,8.89,1.75,5.31-2.39,12.76-4.64,15.58-7.78,1.47-.75,1.95,0,2.62.13-.83.49-1.9.81-2.3,1.26,2.95-1.51,9.07-3.32,9.4-4.83,4.06-.76-1.8,1.92,3.45-.14l-.59.63c5.54-.9,9.49-3.37,13.61-5.62,4.12-2.3,8.39-4.46,14.4-5.99-.83.22-1.24.34-1.46.26,6.6-2.32,13.06-5.59,19.43-8.91,6.35-3.36,12.59-6.84,18.65-10.19,3.4-1.99,3.54-2.55,5.38-4.11l.95-.12c1.01-.95,2.05-1.84,3.05-2.79,2.25-1.84,4.36-3.21,6.58-4.78,2.19-1.6,4.48-3.44,6.87-6.28l-.84.51c.95-.92,2.38-2.45,3.51-3.73,1.12-1.29,1.98-2.3,1.94-2.04.14-.24.35-.83,1.09-1.57l.19.04c1.23-1.8,2.41-3.63,3.41-5.56,1.32-2.15,1.32-1.93,1.51-1.93.16-.02.58-.24,2.04-3.7.51-1.3.98-3.24,1.23-4.72.19-1.5.26-2.51.11-2.01-.12.54-.28,1.23-.45,1.79-.19.55-.38.97-.46.98.21-.8.35-1.63.49-2.45-.18-.26-.31-.88-.57-.7-.13.1-.3.38-.53,1-.22.62-.55,1.55-1.05,2.94-.33,1.33-.73,2.65-1.21,3.95l-.78,1.11.73-1.57.65-1.61c-.93,1.74-1.28,2.94-1.83,4.24-.27.23-.6.71-1.06,1.39-.29.61-.56,1.24-.86,1.85l-.95,1.83c-.44.29.74-1.71-.92.46-.96,1.67,1.43-1.24-.34,1.41-1.43,1.43-1.15.89-2.54,2.79-.31.17-.04-.26.52-1-1.21,1.71-3.63,4.16-4.23,5.09-1.64,1.31-5.13,4.9-5.3,4.39-.22.25-.86.92-1.64,1.68-.8.74-1.71,1.58-2.47,2.18,1.22-1.3-.21-.19-1.91,1.08-1.71,1.27-3.73,2.67-3.53,2.15-1.82,1.96-7.7,5.46-11.58,8.01.2-.17.6-.49.97-.68-2.27,1.29-3.01,1.53-4.52,2.26-.08.54-3.6,2.59-5.43,3.83-3.04,1.12,1.5-1.34.42-1.23.31.24-4.78,2.86-3.69,2.61-2.31.87-1.94.84-3.24,1.07-.16.66-2.01,1.09-3.71,2.24-3.33,1.25-1.03-.06-4.52,1.69-1.76.61,1.32-.99,1.32-.99Zm-88.03,28.98h0c.78-.19,1.45-.34,1.87-.43-.39.09-.93.22-1.87.43Zm-7.64,1.62c.93-.19,2.09-.43,3.32-.68.29.07.03.26-.74.41.4-.17-1.42.13-2.58.27Zm17.82,3.57c-1.15.56-1.62.4-1.86.14.56-.19,1.21-.44,2.06-.79.02-.06.08-.15.1-.22-.05.31-.12.6-.3.86Z"/>
      <path class="cls-5" d="m345.13,160.74c.17-.08.25-.17.47-.24-.28-.06-.53-.1-.79-.12-.11.19-.22.39-.32.56.22-.07.44-.14.64-.2Z"/>
      <path class="cls-5" d="m342.21,7.89l-.16-.04c.13.06.26.12.34.2-.11-.07-.11-.11-.17-.16Z"/>
      <polygon class="cls-5" points="218.56 171.81 218.57 171.92 219.25 171.79 218.56 171.81"/>
      <path class="cls-5" d="m384.93,14.48c.08.04.23.09.55.16-.02-.02-.26-.09-.55-.16Z"/>
      <path class="cls-5" d="m403.24,17.65l2.55.63c-1.1-.29-1.91-.48-2.55-.63Z"/>
      <path class="cls-5" d="m417.14,20.91c.19,0,.25-.04.3-.06-.01,0-.02,0-.03,0l-.28.07Z"/>
      <path class="cls-5" d="m191.54,21.98c-.19.04-.37.08-.54.12-1.25.33-.4.13.54-.12Z"/>
      <path class="cls-5" d="m258.4,11.98c-.71.14-1.41.27-2.15.38,1.2-.07,2.14-.14,2.15-.38Z"/>
      <path class="cls-5" d="m118.73,41.13s0,0,0-.01c-.15.05-.29.1-.44.15l.44-.14Z"/>
      <path class="cls-5" d="m253.11,12.64c1.21-.03,2.21-.14,3.13-.27-.99.05-2.15.12-3.13.27Z"/>
      <path class="cls-5" d="m472.63,46.35c.16.16.34.3.49.47,0-.02.04,0,.09.02-.18-.17-.39-.32-.58-.49Z"/>
      <path class="cls-5" d="m473.21,46.84l.56.5c-.25-.24-.46-.45-.56-.5Z"/>
      <path class="cls-5" d="m474.95,48.41c-.38-.37-.79-.71-1.18-1.07.39.39.88.86,1.18,1.07Z"/>
      <path class="cls-5" d="m457.33,35.61h-.24c.11.03.2.03.24,0Z"/>
      <path class="cls-5" d="m452.21,33.04c1.23.6,2.97,1.71,4.68,2.54h.2c-.85-.29-3.61-2.17-4.87-2.54Z"/>
      <path class="cls-5" d="m430.4,22.88c1.52.54,3.04,1.08,4.56,1.66-.74-.44-1.72-1.04.38-.36-5.62-2.5,1.08.75-4.93-1.3Z"/>
      <path class="cls-5" d="m416.04,18.43c2.55.56.05-.32.21-.41-1.65-.23-2.05-.27-.21.41Z"/>
      <path class="cls-5" d="m308.34,5.17l.25-1.55c-2.01.16-.01.6-.25,1.55Z"/>
      <polygon class="cls-5" points="287.74 10.49 289.69 10.63 290.6 10.28 287.74 10.49"/>
      <polygon class="cls-5" points="274.99 1.34 275.86 1.06 272.52 1.79 274.99 1.34"/>
      <path class="cls-5" d="m91.91,29.83l2.44,4.55c.98-1.33-.78-6.77-2.44-4.55Z"/>
      <path class="cls-5" d="m21.68,76.39c-2.7-1.24-5.95-.43-4.92,2.67,1.7-1.43,4.73-1.41,4.92-2.67Z"/>
      <polygon class="cls-5" points="198.06 190.38 196.46 191.86 199.49 190.51 198.06 190.38"/>
    </g>
    <g>
      <path class="cls-1" d="m483.74,74.29c2.34-2.15,5.16-3.77,8.12-4.84l-2.83,12.23c-3.15,1-5.93,3.05-8.25,5.38l2.95-12.77Z"/>
      <path class="cls-1" d="m480.79,87.05c-1.03-3.13-2.73-6.11-5.05-8.46l2.82-12.2c2.24,2.33,4.05,4.93,5.18,7.89l-2.95,12.77Z"/>
      <path class="cls-5" d="m488.88,82.38c-3.15,1-5.93,3.05-8.25,5.38-1.03-3.13-2.73-6.11-5.05-8.46l.38-1.64c2.24,2.33,4.05,4.94,5.18,7.89,2.34-2.15,5.16-3.77,8.12-4.84l-.39,1.67Z"/>
      <path class="cls-3" d="m489.79,78.43c-3.15,1-5.93,3.05-8.25,5.38-1.03-3.13-2.73-6.1-5.05-8.46l.38-1.64c2.24,2.33,4.05,4.93,5.18,7.89,2.34-2.15,5.16-3.77,8.12-4.84l-.39,1.67Z"/>
      <path class="cls-4" d="m490.71,74.47c-3.15,1-5.93,3.05-8.25,5.38-1.03-3.13-2.73-6.1-5.05-8.46l.38-1.64c2.24,2.33,4.05,4.93,5.18,7.89,2.34-2.15,5.16-3.77,8.12-4.84l-.39,1.67Z"/>
      <path class="cls-2" d="m491.62,70.51c-3.15,1-5.92,3.05-8.25,5.38-1.03-3.13-2.73-6.1-5.05-8.46l.38-1.64c2.24,2.33,4.05,4.93,5.18,7.89,2.34-2.15,5.16-3.77,8.12-4.84l-.39,1.67Z"/>
    </g>
    <g>
      <path class="cls-1" d="m482.33,60.81c2.74,1.62,5.82,2.62,8.95,3.05l-5.3-11.38c-3.29-.33-6.43-1.76-9.19-3.56l5.53,11.88Z"/>
      <path class="cls-1" d="m476.8,48.93c-.36,3.28-1.4,6.54-3.19,9.32l5.29,11.35c1.71-2.74,2.94-5.67,3.43-8.79l-5.53-11.88Z"/>
      <path class="cls-5" d="m485.67,51.82c-3.29-.33-6.43-1.76-9.19-3.56-.36,3.28-1.4,6.54-3.19,9.32l.71,1.53c1.71-2.75,2.94-5.67,3.43-8.8,2.74,1.62,5.83,2.62,8.95,3.05l-.72-1.55Z"/>
      <path class="cls-3" d="m487.39,55.5c-3.29-.32-6.43-1.76-9.18-3.55-.36,3.28-1.41,6.54-3.19,9.32l.71,1.53c1.71-2.74,2.94-5.67,3.43-8.79,2.74,1.62,5.82,2.62,8.95,3.05l-.72-1.55Z"/>
      <path class="cls-4" d="m489.11,59.19c-3.29-.33-6.43-1.76-9.18-3.55-.36,3.28-1.41,6.54-3.19,9.32l.71,1.53c1.71-2.74,2.94-5.67,3.43-8.79,2.74,1.62,5.82,2.62,8.95,3.05l-.72-1.55Z"/>
      <path class="cls-2" d="m490.82,62.87c-3.29-.32-6.43-1.76-9.18-3.55-.36,3.28-1.41,6.54-3.19,9.32l.71,1.53c1.71-2.74,2.94-5.67,3.43-8.79,2.74,1.62,5.82,2.62,8.95,3.05l-.72-1.55Z"/>
    </g>
  </g>
</svg>